{
  "accessors": [
    {
      "bufferView": 2,
      "componentType": 5126,
      "count": 734,
      "max": [
        0.5109757781028748,
        0.7653714418411255,
        1.4552661180496216
      ],
      "min": [
        -0.5110152959823608,
        -0.4804626703262329,
        -0.008488249033689499
      ],
      "type": "VEC3"
    },
    {
      "bufferView": 2,
      "byteOffset": 8808,
      "componentType": 5126,
      "count": 734,
      "max": [
        0.999997079372406,
        0.9999062418937683,
        0.9999114871025085
      ],
      "min": [
        -0.999997079372406,
        -0.9998444318771362,
        -0.9998517632484436
      ],
      "type": "VEC3"
    },
    {
      "bufferView": 1,
      "componentType": 5126,
      "count": 734,
      "max": [
        0.9922499656677246,
        0.8816779851913452
      ],
      "min": [
        0.007353882305324078,
        0.007368568796664476
      ],
      "type": "VEC2"
    },
    {
      "bufferView": 0,
      "componentType": 5125,
      "count": 3270,
      "type": "SCALAR"
    },
    {
      "bufferView": 2,
      "byteOffset": 17616,
      "componentType": 5126,
      "count": 1713,
      "max": [
        1.9959797859191895,
        0.7909852266311646,
        2.974186420440674
      ],
      "min": [
        1.0040202140808105,
        -0.6533616781234741,
        -0.014246225357055664
      ],
      "type": "VEC3"
    },
    {
      "bufferView": 2,
      "byteOffset": 38172,
      "componentType": 5126,
      "count": 1713,
      "max": [
        0.9994879961013794,
        0.9999987483024597,
        0.9997126460075378
      ],
      "min": [
        -0.9994880557060242,
        -0.9994519352912903,
        -0.9999943375587463
      ],
      "type": "VEC3"
    },
    {
      "bufferView": 1,
      "byteOffset": 5872,
      "componentType": 5126,
      "count": 1713,
      "max": [
        0.9966686964035034,
        0.9916273355484009
      ],
      "min": [
        0.007950518280267715,
        0.0021212883293628693
      ],
      "type": "VEC2"
    },
    {
      "bufferView": 0,
      "byteOffset": 13080,
      "componentType": 5125,
      "count": 7896,
      "type": "SCALAR"
    },
    {
      "bufferView": 2,
      "byteOffset": 58728,
      "componentType": 5126,
      "count": 1622,
      "max": [
        6.3589301109313965,
        1.743402123451233,
        3.2463862895965576
      ],
      "min": [
        3.6410698890686035,
        -1.3209463357925415,
        0.0007684230804443359
      ],
      "type": "VEC3"
    },
    {
      "bufferView": 2,
      "byteOffset": 78192,
      "componentType": 5126,
      "count": 1622,
      "max": [
        0.9966103434562683,
        0.9999956488609314,
        0.9987750053405762
      ],
      "min": [
        -0.9966103434562683,
        -0.9993391633033752,
        -0.9999337196350098
      ],
      "type": "VEC3"
    },
    {
      "bufferView": 1,
      "byteOffset": 19576,
      "componentType": 5126,
      "count": 1622,
      "max": [
        0.9912474155426025,
        0.9878900051116943
      ],
      "min": [
        0.008461706340312958,
        0.004677502904087305
      ],
      "type": "VEC2"
    },
    {
      "bufferView": 0,
      "byteOffset": 44664,
      "componentType": 5125,
      "count": 7392,
      "type": "SCALAR"
    },
    {
      "bufferView": 2,
      "byteOffset": 97656,
      "componentType": 5126,
      "count": 500,
      "max": [
        5.61720609664917,
        0.02159261703491211,
        1.8077858686447144
      ],
      "min": [
        2.7729039192199707,
        -1.0568386316299438,
        -0.0038808584213256836
      ],
      "type": "VEC3"
    },
    {
      "bufferView": 2,
      "byteOffset": 103656,
      "componentType": 5126,
      "count": 500,
      "max": [
        1.0,
        0.9999874234199524,
        0.9954164028167725
      ],
      "min": [
        -1.0,
        -0.999993622303009,
        -0.9982351064682007
      ],
      "type": "VEC3"
    },
    {
      "bufferView": 1,
      "byteOffset": 32552,
      "componentType": 5126,
      "count": 500,
      "max": [
        0.7445559501647949,
        0.6228573322296143
      ],
      "min": [
        0.006983728613704443,
        0.006971075665205717
      ],
      "type": "VEC2"
    },
    {
      "bufferView": 0,
      "byteOffset": 74232,
      "componentType": 5125,
      "count": 2064,
      "type": "SCALAR"
    },
    {
      "bufferView": 2,
      "byteOffset": 109656,
      "componentType": 5126,
      "count": 934,
      "max": [
        3.6807503700256348,
        0.7822006940841675,
        1.4960945844650269
      ],
      "min": [
        2.3192496299743652,
        -0.636648952960968,
        0.20661461353302002
      ],
      "type": "VEC3"
    },
    {
      "bufferView": 2,
      "byteOffset": 120864,
      "componentType": 5126,
      "count": 934,
      "max": [
        0.9994096755981445,
        0.9999995827674866,
        0.9985066056251526
      ],
      "min": [
        -0.9994096755981445,
        -0.9989528059959412,
        -0.9998892545700073
      ],
      "type": "VEC3"
    },
    {
      "bufferView": 1,
      "byteOffset": 36552,
      "componentType": 5126,
      "count": 934,
      "max": [
        0.9930251240730286,
        0.9887948036193848
      ],
      "min": [
        0.0069773998111486435,
        0.0069728451780974865
      ],
      "type": "VEC2"
    },
    {
      "bufferView": 0,
      "byteOffset": 82488,
      "componentType": 5125,
      "count": 4668,
      "type": "SCALAR"
    }
  ],
  "asset": {
    "extras": {
      "author": "dokibird (https://sketchfab.com/dokibird)",
      "license": "CC-BY-4.0 (http://creativecommons.org/licenses/by/4.0/)",
      "source": "https://sketchfab.com/3d-models/dokibird-dragoons-0f9918d61f254a3f81e797dfc7fa8a08",
      "title": "Dokibird: Dragoons"
    },
    "generator": "Sketchfab-16.33.0",
    "version": "2.0"
  },
  "bufferViews": [
    {
      "buffer": 0,
      "byteLength": 101160,
      "name": "floatBufferViews",
      "target": 34963
    },
    {
      "buffer": 0,
      "byteLength": 44024,
      "byteOffset": 101160,
      "byteStride": 8,
      "name": "floatBufferViews",
      "target": 34962
    },
    {
      "buffer": 0,
      "byteLength": 132072,
      "byteOffset": 145184,
      "byteStride": 12,
      "name": "floatBufferViews",
      "target": 34962
    }
  ],
  "buffers": [
    {
      "byteLength": 277256,
      "uri": "scene.bin"
    }
  ],
  "extensionsUsed": [
    "KHR_materials_unlit"
  ],
  "images": [
    {
      "uri": "textures/Dragoon_Egg_baseColor.png"
    },
    {
      "uri": "textures/Dragoon_Long_baseColor.png"
    },
    {
      "uri": "textures/Dragoon_Chonky_baseColor.png"
    },
    {
      "uri": "textures/Dragoon_regular_baseColor.png"
    }
  ],
  "materials": [
    {
      "doubleSided": true,
      "extensions": {
        "KHR_materials_unlit": {}
      },
      "name": "Dragoon_Egg",
      "pbrMetallicRoughness": {
        "baseColorTexture": {
          "index": 0
        },
        "metallicFactor": 0.0
      }
    },
    {
      "doubleSided": true,
      "extensions": {
        "KHR_materials_unlit": {}
      },
      "name": "Dragoon_Long",
      "pbrMetallicRoughness": {
        "baseColorTexture": {
          "index": 1
        },
        "metallicFactor": 0.0
      }
    },
    {
      "doubleSided": true,
      "extensions": {
        "KHR_materials_unlit": {}
      },
      "name": "Dragoon_Chonky",
      "pbrMetallicRoughness": {
        "baseColorTexture": {
          "index": 2
        },
        "metallicFactor": 0.0
      }
    },
    {
      "doubleSided": true,
      "extensions": {
        "KHR_materials_unlit": {}
      },
      "name": "Outline",
      "pbrMetallicRoughness": {
        "baseColorFactor": [
          0.0,
          0.0,
          0.0,
          1.0
        ],
        "metallicFactor": 0.0
      }
    },
    {
      "doubleSided": true,
      "extensions": {
        "KHR_materials_unlit": {}
      },
      "name": "Dragoon_regular",
      "pbrMetallicRoughness": {
        "baseColorTexture": {
          "index": 3
        },
        "metallicFactor": 0.0
      }
    }
  ],
  "meshes": [
    {
      "name": "Dragoons_Dragoon_Egg_0",
      "primitives": [
        {
          "attributes": {
            "NORMAL": 1,
            "POSITION": 0,
            "TEXCOORD_0": 2
          },
          "indices": 3,
          "material": 0,
          "mode": 4
        }
      ]
    },
    {
      "name": "Dragoons_Dragoon_Long_0",
      "primitives": [
        {
          "attributes": {
            "NORMAL": 5,
            "POSITION": 4,
            "TEXCOORD_0": 6
          },
          "indices": 7,
          "material": 1,
          "mode": 4
        }
      ]
    },
    {
      "name": "Dragoons_Dragoon_Chonky_0",
      "primitives": [
        {
          "attributes": {
            "NORMAL": 9,
            "POSITION": 8,
            "TEXCOORD_0": 10
          },
          "indices": 11,
          "material": 2,
          "mode": 4
        }
      ]
    },
    {
      "name": "Dragoons_Outline_0",
      "primitives": [
        {
          "attributes": {
            "NORMAL": 13,
            "POSITION": 12,
            "TEXCOORD_0": 14
          },
          "indices": 15,
          "material": 3,
          "mode": 4
        }
      ]
    },
    {
      "name": "Dragoons_Dragoon_regular_0",
      "primitives": [
        {
          "attributes": {
            "NORMAL": 17,
            "POSITION": 16,
            "TEXCOORD_0": 18
          },
          "indices": 19,
          "material": 4,
          "mode": 4
        }
      ]
    }
  ],
  "nodes": [
    {
      "children": [
        1
      ],
      "matrix": [
        1.0,
        0.0,
        0.0,
        0.0,
        0.0,
        2.220446049250313e-16,
        -1.0,
        0.0,
        0.0,
        1.0,
        2.220446049250313e-16,
        0.0,
        0.0,
        0.0,
        0.0,
        1.0
      ],
      "name": "Sketchfab_model"
    },
    {
      "children": [
        2
      ],
      "matrix": [
        0.009999999776482582,
        0.0,
        0.0,
        0.0,
        0.0,
        0.0,
        0.009999999776482582,
        0.0,
        0.0,
        -0.009999999776482582,
        0.0,
        0.0,
        0.0,
        0.0,
        0.0,
        1.0
      ],
      "name": "DragoonsCombined.fbx"
    },
    {
      "children": [
        3
      ],
      "name": "RootNode"
    },
    {
      "children": [
        4,
        5,
        6,
        7,
        8
      ],
      "matrix": [
        100.0,
        0.0,
        0.0,
        0.0,
        -0.0,
        -1.629206793918314e-05,
        -99.99999999999868,
        0.0,
        0.0,
        99.99999999999868,
        -1.629206793918314e-05,
        0.0,
        -237.62185668945313,
        0.0,
        0.0,
        1.0
      ],
      "name": "Dragoons"
    },
    {
      "mesh": 0,
      "name": "Dragoons_Dragoon_Egg_0"
    },
    {
      "mesh": 1,
      "name": "Dragoons_Dragoon_Long_0"
    },
    {
      "mesh": 2,
      "name": "Dragoons_Dragoon_Chonky_0"
    },
    {
      "mesh": 3,
      "name": "Dragoons_Outline_0"
    },
    {
      "mesh": 4,
      "name": "Dragoons_Dragoon_regular_0"
    }
  ],
  "samplers": [
    {
      "magFilter": 9729,
      "minFilter": 9987,
      "wrapS": 10497,
      "wrapT": 10497
    }
  ],
  "scene": 0,
  "scenes": [
    {
      "name": "Sketchfab_Scene",
      "nodes": [
        0
      ]
    }
  ],
  "textures": [
    {
      "sampler": 0,
      "source": 0
    },
    {
      "sampler": 0,
      "source": 1
    },
    {
      "sampler": 0,
      "source": 2
    },
    {
      "sampler": 0,
      "source": 3
    }
  ]
}
