{
  "accessors": [
    {
      "bufferView": 3,
      "componentType": 5126,
      "count": 9667,
      "max": [
        2.43674898147583,
        5.0733184814453125,
        1.963932991027832
      ],
      "min": [
        -2.436748743057251,
        0.012498856522142887,
        -1.8155982494354248
      ],
      "type": "VEC3"
    },
    {
      "bufferView": 3,
      "byteOffset": 116004,
      "componentType": 5126,
      "count": 9667,
      "max": [
        1.0,
        1.0,
        0.9997830390930176
      ],
      "min": [
        -1.0,
        -1.0,
        -0.9999778270721436
      ],
      "type": "VEC3"
    },
    {
      "bufferView": 2,
      "componentType": 5126,
      "count": 9667,
      "max": [
        0.9965330362319946,
        0.9785261154174805
      ],
      "min": [
        0.003466957248747349,
        0.003466957248747349
      ],
      "type": "VEC2"
    },
    {
      "bufferView": 2,
      "byteOffset": 77336,
      "componentType": 5126,
      "count": 9667,
      "max": [
        0.9965330362319946,
        0.9785261154174805
      ],
      "min": [
        0.003466957248747349,
        0.003466957248747349
      ],
      "type": "VEC2"
    },
    {
      "bufferView": 1,
      "componentType": 5125,
      "count": 48510,
      "type": "SCALAR"
    },
    {
      "bufferView": 3,
      "byteOffset": 232008,
      "componentType": 5126,
      "count": 9667,
      "max": [
        2.43674898147583,
        5.0733184814453125,
        1.9888269901275635
      ],
      "min": [
        -2.436748743057251,
        -0.012498856522142887,
        -1.8405876159667969
      ],
      "type": "VEC3"
    },
    {
      "bufferView": 3,
      "byteOffset": 348012,
      "componentType": 5126,
      "count": 9667,
      "max": [
        1.0,
        1.0,
        0.9999917149543762
      ],
      "min": [
        -1.0,
        -1.0,
        -0.9999256730079651
      ],
      "type": "VEC3"
    },
    {
      "bufferView": 2,
      "byteOffset": 154672,
      "componentType": 5126,
      "count": 9667,
      "max": [
        0.9965330362319946,
        0.9785261154174805
      ],
      "min": [
        0.003466957248747349,
        0.003466957248747349
      ],
      "type": "VEC2"
    },
    {
      "bufferView": 2,
      "byteOffset": 232008,
      "componentType": 5126,
      "count": 9667,
      "max": [
        0.9965330362319946,
        0.9785261154174805
      ],
      "min": [
        0.003466957248747349,
        0.003466957248747349
      ],
      "type": "VEC2"
    },
    {
      "bufferView": 1,
      "byteOffset": 194040,
      "componentType": 5125,
      "count": 48510,
      "type": "SCALAR"
    },
    {
      "bufferView": 5,
      "componentType": 5126,
      "count": 28,
      "max": [
        100.0,
        0.868645429611206,
        0.995398223400116,
        0.0,
        0.9920914173126221,
        100.0,
        0.6456680297851563,
        0.0,
        0.33219486474990845,
        0.41076818108558655,
        100.0,
        0.0,
        3.8516457080841064,
        0.0,
        0.8164417743682861,
        1.0
      ],
      "min": [
        -0.8453200459480286,
        -0.8686453104019165,
        -0.637191653251648,
        0.0,
        -0.9920914173126221,
        -0.1215270459651947,
        -0.41076818108558655,
        0.0,
        -0.9809761047363281,
        -0.6543022394180298,
        -0.9908047318458557,
        0.0,
        -2.470583200454712,
        -3.785818576812744,
        -3.5428543090820313,
        1.0
      ],
      "type": "MAT4"
    },
    {
      "bufferView": 0,
      "componentType": 5123,
      "count": 9667,
      "type": "VEC4"
    },
    {
      "bufferView": 4,
      "componentType": 5126,
      "count": 9667,
      "max": [
        1.0,
        0.4999999701976776,
        0.19586831331253052,
        0.0
      ],
      "min": [
        0.4299253821372986,
        0.0,
        0.0,
        0.0
      ],
      "type": "VEC4"
    },
    {
      "bufferView": 0,
      "byteOffset": 77336,
      "componentType": 5123,
      "count": 9667,
      "type": "VEC4"
    },
    {
      "bufferView": 4,
      "byteOffset": 154672,
      "componentType": 5126,
      "count": 9667,
      "max": [
        1.0,
        0.4999999701976776,
        0.19586831331253052,
        0.0
      ],
      "min": [
        0.4299253821372986,
        0.0,
        0.0,
        0.0
      ],
      "type": "VEC4"
    }
  ],
  "asset": {
    "extras": {
      "author": "dokibird (https://sketchfab.com/dokibird)",
      "license": "CC-BY-4.0 (http://creativecommons.org/licenses/by/4.0/)",
      "source": "https://sketchfab.com/3d-models/maid-mint-wisp-bcc39aeec24b487893368146ae70826d",
      "title": "Maid Mint: Wisp"
    },
    "generator": "Sketchfab-16.33.0",
    "version": "2.0"
  },
  "bufferViews": [
    {
      "buffer": 0,
      "byteLength": 154672,
      "byteStride": 8,
      "name": "shortBufferViews",
      "target": 34962
    },
    {
      "buffer": 0,
      "byteLength": 388080,
      "byteOffset": 154672,
      "name": "floatBufferViews",
      "target": 34963
    },
    {
      "buffer": 0,
      "byteLength": 309344,
      "byteOffset": 542752,
      "byteStride": 8,
      "name": "floatBufferViews",
      "target": 34962
    },
    {
      "buffer": 0,
      "byteLength": 464016,
      "byteOffset": 852096,
      "byteStride": 12,
      "name": "floatBufferViews",
      "target": 34962
    },
    {
      "buffer": 0,
      "byteLength": 309344,
      "byteOffset": 1316112,
      "byteStride": 16,
      "name": "floatBufferViews",
      "target": 34962
    },
    {
      "buffer": 0,
      "byteLength": 1792,
      "byteOffset": 1625456,
      "name": "floatBufferViews"
    }
  ],
  "buffers": [
    {
      "byteLength": 1627248,
      "uri": "scene.bin"
    }
  ],
  "extensionsUsed": [
    "KHR_materials_unlit"
  ],
  "images": [
    {
      "uri": "textures/Wisp_Basecolor_baseColor.png"
    },
    {
      "uri": "textures/Wisp_Basecolor_emissive.png"
    },
    {
      "uri": "textures/Wisp_outline_baseColor.png"
    }
  ],
  "materials": [
    {
      "doubleSided": true,
      "emissiveFactor": [
        1.0,
        1.0,
        1.0
      ],
      "emissiveTexture": {
        "index": 1,
        "texCoord": 1
      },
      "extensions": {
        "KHR_materials_unlit": {}
      },
      "name": "Wisp_Basecolor",
      "pbrMetallicRoughness": {
        "baseColorTexture": {
          "index": 0
        },
        "metallicFactor": 0.0
      }
    },
    {
      "emissiveFactor": [
        1.0,
        1.0,
        1.0
      ],
      "emissiveTexture": {
        "index": 2,
        "texCoord": 1
      },
      "extensions": {
        "KHR_materials_unlit": {}
      },
      "name": "Wisp_outline",
      "pbrMetallicRoughness": {
        "baseColorTexture": {
          "index": 2
        },
        "metallicFactor": 0.0
      }
    }
  ],
  "meshes": [
    {
      "name": "WispMascot_low_Wisp_Basecolor_0",
      "primitives": [
        {
          "attributes": {
            "JOINTS_0": 11,
            "NORMAL": 1,
            "POSITION": 0,
            "TEXCOORD_0": 2,
            "TEXCOORD_1": 3,
            "WEIGHTS_0": 12
          },
          "indices": 4,
          "material": 0,
          "mode": 4
        }
      ]
    },
    {
      "name": "WispMascot_low_Wisp_outline_0",
      "primitives": [
        {
          "attributes": {
            "JOINTS_0": 13,
            "NORMAL": 6,
            "POSITION": 5,
            "TEXCOORD_0": 7,
            "TEXCOORD_1": 8,
            "WEIGHTS_0": 14
          },
          "indices": 9,
          "material": 1,
          "mode": 4
        }
      ]
    }
  ],
  "nodes": [
    {
      "children": [
        1
      ],
      "matrix": [
        1.0,
        0.0,
        0.0,
        0.0,
        0.0,
        2.220446049250313e-16,
        -1.0,
        0.0,
        0.0,
        1.0,
        2.220446049250313e-16,
        0.0,
        0.0,
        0.0,
        0.0,
        1.0
      ],
      "name": "Sketchfab_model"
    },
    {
      "children": [
        2
      ],
      "matrix": [
        0.009999999776482582,
        0.0,
        0.0,
        0.0,
        0.0,
        0.0,
        0.009999999776482582,
        0.0,
        0.0,
        -0.009999999776482582,
        0.0,
        0.0,
        0.0,
        0.0,
        0.0,
        1.0
      ],
      "name": "Wisp_Mascot(with emission and outline).fbx"
    },
    {
      "children": [
        3
      ],
      "name": "RootNode"
    },
    {
      "children": [
        4
      ],
      "matrix": [
        100.0,
        0.0,
        0.0,
        0.0,
        0.0,
        -1.629206793918314e-05,
        -99.99999999999868,
        0.0,
        0.0,
        99.99999999999868,
        -1.629206793918314e-05,
        0.0,
        0.0,
        0.0,
        0.0,
        1.0
      ],
      "name": "Armature"
    },
    {
      "children": [
        5,
        7,
        8,
        6
      ],
      "name": "Object_4"
    },
    {
      "children": [
        9
      ],
      "name": "_rootJoint"
    },
    {
      "matrix": [
        100.0,
        0.0,
        0.0,
        0.0,
        0.0,
        6.123233995736766e-15,
        -100.0,
        0.0,
        0.0,
        100.0,
        6.123233995736766e-15,
        0.0,
        0.0,
        0.0,
        0.0,
        1.0
      ],
      "name": "Object_6"
    },
    {
      "mesh": 0,
      "name": "Object_7",
      "skin": 0
    },
    {
      "mesh": 1,
      "name": "Object_8",
      "skin": 0
    },
    {
      "children": [
        10
      ],
      "name": "Root_00",
      "rotation": [
        0.7071068286895752,
        0.0,
        0.0,
        0.7071067094802856
      ],
      "translation": [
        2.0023435354232788e-07,
        -4.0605664253234863e-07,
        0.0
      ]
    },
    {
      "children": [
        11,
        14,
        17,
        20,
        23,
        25,
        27,
        34
      ],
      "name": "Head_01",
      "rotation": [
        -2.2558707257758215e-07,
        1.1124130594453163e-07,
        1.1124130594453163e-07,
        1.0
      ],
      "translation": [
        0.0,
        1.4000000953674316,
        0.0
      ]
    },
    {
      "children": [
        12
      ],
      "name": "Whisker.001_02",
      "rotation": [
        -0.19701579213142395,
        0.122959665954113,
        -0.5782813429832458,
        0.7820846438407898
      ],
      "scale": [
        1.0,
        0.9999999403953552,
        0.9999999403953552
      ],
      "translation": [
        1.6776223182678223,
        0.31942951679229736,
        0.7844615578651428
      ]
    },
    {
      "children": [
        13
      ],
      "name": "Whisker.002_03",
      "rotation": [
        -0.1342562735080719,
        -0.0054033719934523106,
        -0.0963323786854744,
        0.9862384796142578
      ],
      "scale": [
        1.0,
        0.9999999403953552,
        1.0000001192092896
      ],
      "translation": [
        8.381903171539307e-08,
        0.4363516867160797,
        0.0
      ]
    },
    {
      "name": "Whisker.002_end_019",
      "rotation": [
        -2.7755575615628914e-17,
        2.0816681711721685e-17,
        6.938893903907228e-18,
        1.0
      ],
      "translation": [
        0.0,
        0.48474398255348206,
        4.440892098500626e-16
      ]
    },
    {
      "children": [
        15
      ],
      "name": "Whisker.003_04",
      "rotation": [
        -0.20959486067295074,
        0.14724360406398773,
        -0.6510758399963379,
        0.7144855260848999
      ],
      "translation": [
        1.7468408346176147,
        -0.1099521815776825,
        0.6529607176780701
      ]
    },
    {
      "children": [
        16
      ],
      "name": "Whisker.004_05",
      "rotation": [
        -0.07038076221942902,
        0.0011881750542670488,
        -0.08588043600320816,
        0.9938157200813293
      ],
      "scale": [
        0.9999999403953552,
        0.9999998807907104,
        0.9999999403953552
      ],
      "translation": [
        -5.587935447692871e-09,
        0.4762366712093353,
        -1.7881393432617188e-07
      ]
    },
    {
      "name": "Whisker.004_end_020",
      "rotation": [
        0.0,
        6.938893903907228e-18,
        0.0,
        1.0
      ],
      "translation": [
        2.220446049250313e-16,
        0.34608832001686096,
        0.0
      ]
    },
    {
      "children": [
        18
      ],
      "name": "Whisker.005_06",
      "rotation": [
        -0.1970159262418747,
        -0.12295974045991898,
        0.5782811045646667,
        0.7820847630500793
      ],
      "scale": [
        0.9999999403953552,
        0.9999999403953552,
        1.0
      ],
      "translation": [
        -1.6776230335235596,
        0.31943026185035706,
        0.7844608426094055
      ]
    },
    {
      "children": [
        19
      ],
      "name": "Whisker.006_07",
      "rotation": [
        -0.1342563033103943,
        0.005403368268162012,
        0.0963323712348938,
        0.9862384796142578
      ],
      "scale": [
        1.0,
        0.9999999403953552,
        1.0
      ],
      "translation": [
        -1.1920928955078125e-07,
        0.43635162711143494,
        -5.960464477539063e-08
      ]
    },
    {
      "name": "Whisker.006_end_021",
      "rotation": [
        -2.7755575615628914e-17,
        -1.3877787807814457e-17,
        2.7755575615628914e-17,
        1.0
      ],
      "translation": [
        2.220446049250313e-16,
        0.48474398255348206,
        0.0
      ]
    },
    {
      "children": [
        21
      ],
      "name": "Whisker.007_08",
      "rotation": [
        -0.20959500968456268,
        -0.14724378287792206,
        0.6510756611824036,
        0.7144856452941895
      ],
      "scale": [
        1.0000001192092896,
        1.0000001192092896,
        1.0
      ],
      "translation": [
        -1.746841549873352,
        -0.10995128005743027,
        0.6529598832130432
      ]
    },
    {
      "children": [
        22
      ],
      "name": "Whisker.008_09",
      "rotation": [
        -0.0703808069229126,
        -0.001188158872537315,
        0.08588038384914398,
        0.9938157200813293
      ],
      "scale": [
        1.0,
        1.0,
        1.0000001192092896
      ],
      "translation": [
        -9.685754776000977e-08,
        0.4762369394302368,
        1.4901161193847656e-08
      ]
    },
    {
      "name": "Whisker.008_end_022",
      "rotation": [
        -2.7755575615628914e-17,
        -0.0,
        0.0,
        1.0
      ],
      "translation": [
        -2.220446049250313e-16,
        0.34608832001686096,
        -2.220446049250313e-16
      ]
    },
    {
      "children": [
        24
      ],
      "name": "Left Ear_010",
      "rotation": [
        0.2743711471557617,
        0.9592302441596985,
        0.05037049576640129,
        0.045393653213977814
      ],
      "scale": [
        0.9999999403953552,
        0.9999995231628418,
        0.9999999403953552
      ],
      "translation": [
        1.208979845046997,
        1.366533875465393,
        -0.4516671895980835
      ]
    },
    {
      "name": "Left Ear_end_023",
      "rotation": [
        -6.938893903907228e-18,
        -3.1296361596292583e-34,
        4.5102810375396984e-17,
        1.0
      ],
      "translation": [
        1.1102230246251565e-16,
        1.1898456811904907,
        0.0
      ]
    },
    {
      "children": [
        26
      ],
      "name": "Right Ear_011",
      "rotation": [
        -0.2743709087371826,
        0.9592304825782776,
        0.05037009343504906,
        -0.04539352282881737
      ],
      "scale": [
        0.9999998807907104,
        0.9999997019767761,
        1.0
      ],
      "translation": [
        -1.2089793682098389,
        1.3665344715118408,
        -0.4516677260398865
      ]
    },
    {
      "name": "Right Ear_end_024",
      "rotation": [
        0.0,
        -0.0,
        -3.3393426912553537e-17,
        1.0
      ],
      "translation": [
        1.1102230246251565e-16,
        1.1898456811904907,
        0.0
      ]
    },
    {
      "children": [
        28
      ],
      "name": "Wisp.001_012",
      "rotation": [
        0.2100718468427658,
        -1.3161633205527323e-07,
        -8.7770558820921e-08,
        0.9776859283447266
      ],
      "translation": [
        0.15135245025157928,
        1.7084134817123413,
        0.606611430644989
      ]
    },
    {
      "children": [
        29
      ],
      "name": "Wisp.002_013",
      "rotation": [
        -0.11295013874769211,
        -0.03631797060370445,
        -0.1700257509946823,
        0.9782711863517761
      ],
      "scale": [
        1.0,
        1.0,
        0.9999999403953552
      ],
      "translation": [
        -0.4196726977825165,
        0.9353735446929932,
        -0.203893780708313
      ]
    },
    {
      "children": [
        30
      ],
      "name": "Wisp.003_014",
      "rotation": [
        -0.21904918551445007,
        0.10123182088136673,
        -0.30536559224128723,
        0.9211522340774536
      ],
      "scale": [
        1.0,
        1.000000238418579,
        1.0
      ],
      "translation": [
        4.6566128730773926e-08,
        0.39072245359420776,
        -1.1641532182693481e-08
      ]
    },
    {
      "children": [
        31
      ],
      "name": "Wisp.004_015",
      "rotation": [
        -0.3094918429851532,
        -0.1372750997543335,
        0.682496964931488,
        0.64774090051651
      ],
      "scale": [
        0.9999999403953552,
        1.0,
        0.9999999403953552
      ],
      "translation": [
        -3.129243850708008e-07,
        0.26771849393844604,
        2.60770320892334e-08
      ]
    },
    {
      "children": [
        32
      ],
      "name": "Wisp.005_016",
      "rotation": [
        -0.03599328175187111,
        -0.18696284294128418,
        -0.12106259912252426,
        0.9742142558097839
      ],
      "scale": [
        0.9999998807907104,
        1.0,
        0.9999999403953552
      ],
      "translation": [
        0.055417731404304504,
        0.47382208704948425,
        -0.18107850849628448
      ]
    },
    {
      "children": [
        33
      ],
      "name": "Wisp.006_017",
      "rotation": [
        -0.005868236068636179,
        0.01394064724445343,
        -0.49307796359062195,
        0.8698536157608032
      ],
      "translation": [
        -4.842877388000488e-08,
        0.2413133829832077,
        8.940696716308594e-08
      ]
    },
    {
      "name": "Wisp.006_end_025",
      "rotation": [
        -5.551115123125783e-17,
        -5.551115123125783e-17,
        -6.938893903907228e-17,
        1.0
      ],
      "translation": [
        0.0,
        0.2175443172454834,
        0.0
      ]
    },
    {
      "children": [
        35
      ],
      "name": "Tag_018",
      "rotation": [
        -0.08080047369003296,
        0.7321951389312744,
        -0.04462258145213127,
        0.6748113632202148
      ],
      "translation": [
        -0.9599636793136597,
        2.0785582065582275,
        0.15159134566783905
      ]
    },
    {
      "name": "Tag_end_026",
      "rotation": [
        5.204170427930421e-18,
        0.0,
        0.0,
        1.0
      ],
      "translation": [
        1.1102230246251565e-16,
        0.33625805377960205,
        0.0
      ]
    }
  ],
  "samplers": [
    {
      "magFilter": 9729,
      "minFilter": 9987,
      "wrapS": 10497,
      "wrapT": 10497
    }
  ],
  "scene": 0,
  "scenes": [
    {
      "name": "Sketchfab_Scene",
      "nodes": [
        0
      ]
    }
  ],
  "skins": [
    {
      "inverseBindMatrices": 10,
      "joints": [
        5,
        9,
        10,
        11,
        12,
        13,
        14,
        15,
        16,
        17,
        18,
        19,
        20,
        21,
        22,
        23,
        24,
        25,
        26,
        27,
        28,
        29,
        30,
        31,
        32,
        33,
        34,
        35
      ],
      "skeleton": 5
    }
  ],
  "textures": [
    {
      "sampler": 0,
      "source": 0
    },
    {
      "sampler": 0,
      "source": 1
    },
    {
      "sampler": 0,
      "source": 2
    }
  ]
}
